<svg version="1.1" xmlns="http://www.w3.org/2000/svg" x="0px" y="0px"
	 viewBox="130.1 -0.4 696.8 560" enable-background="new 130.1 -0.4 696.8 560" >
<g>
	<path d="M677.5,20.4c20.1,0,37.1,3.1,48.7,9.1c44.5,22.6,55.8,33.9,70.9,70.9c6.4,15.5,9.5,36.5,8.9,58.9
		c-0.4,21.6-4.5,43.2-10.9,59.2c-17.7,45-105.5,137.5-135.5,166.1c-20.5,19.6-117.9,113.9-152.9,147.7
		c-44.1-31.9-177-127.6-192.5-139.8c-18.3-14.4-81.6-69.5-123-119.7c-19.5-23.8-40.6-80.5-40.3-130.1c0.3-44.2,39.4-91.5,67.3-106
		c18.3-9.5,40-14.3,64.6-14.3c11.8,0,22.5,1,29.5,1.9c34.4,4,101.8,47.6,147.5,106l17.4,22.2l16.1-22.9c0.3-0.3,25.9-36.8,63.4-64.8
		C594.8,36.5,633,25,640.2,23.7C644.6,22.8,659.6,20.4,677.5,20.4 M677.5-0.4c-19.4,0-35.6,2.5-40.8,3.6
		c-10.4,1.8-51.4,14.6-92.3,45s-68.2,69.7-68.2,69.7C430.4,59.2,358.6,9.1,314.7,3.9c-8.8-1-19.6-2.1-31.9-2.1
		c-22.3,0-48.8,3.4-74.1,16.5c-32.5,16.8-78.1,70-78.6,124.3c-0.4,54.3,22.6,116.1,45.4,143.6c42.9,52,107.2,107.9,126.2,122.8
		C320.8,423.9,509,559.6,509,559.6s139.9-135.6,165.2-159.7c25.3-24.1,120-121.8,140.4-173.6c14.7-37.2,17.4-95.4,1.8-133.8
		c-17.4-42.4-32.5-56.9-80.7-81.6C718.1,2.1,696.4-0.4,677.5-0.4L677.5-0.4z"/>
</g>
</svg>
