<svg version="1.1" xmlns="http://www.w3.org/2000/svg" x="0px" y="0px"
	 viewBox="0 0 468.1 376.2" enable-background="new 0 0 468.1 376.2" >

<path fill="#05A6D4" d="M232.5,79.4c0,0,18.2-26.3,45.8-46.8s55-29,62-30.2s42.8-6.8,66.5,5.2c32.5,16.5,42.6,26.2,54.2,54.8
	c10.6,25.8,8.7,64.9-1.2,89.9c-13.7,34.8-77.3,100.4-94.3,116.6s-111,107.3-111,107.3S128,285.1,115.3,275.1s-56-47.6-84.8-82.5
	C15.3,174.1-0.2,132.6,0,96.1s31-72.2,52.8-83.5C79.2-1,107.4,0.9,124,2.9C153.5,6.4,201.8,40.1,232.5,79.4z"/>
</svg>
